<?xml version="1.0" standalone="no"?>
<!DOCTYPE svg PUBLIC "-//W3C//DTD SVG 20010904//EN"
 "http://www.w3.org/TR/2001/REC-SVG-20010904/DTD/svg10.dtd">
<svg version="1.0" xmlns="http://www.w3.org/2000/svg"
 width="49.000000pt" height="81.000000pt" viewBox="0 0 49.000000 81.000000"
 preserveAspectRatio="xMidYMid meet">
<metadata>
Created by potrace 1.16, written by Peter Selinger 2001-2019
</metadata>
<g transform="translate(0.000000,81.000000) scale(0.100000,-0.100000)"
fill="#000000" stroke="none">
<path d="M41 756 c-7 -8 -11 -27 -9 -43 3 -28 3 -28 81 -29 69 -1 77 0 77 17
0 11 7 19 15 19 8 0 15 -9 15 -20 0 -17 7 -20 44 -20 38 0 45 3 49 23 l4 22 2
-22 c1 -22 5 -23 71 -23 l70 0 0 40 c0 22 -4 40 -10 40 -5 0 -10 -4 -10 -10 0
-5 -22 -10 -50 -10 -27 0 -50 5 -50 10 0 6 -20 10 -45 10 -29 0 -45 -4 -45
-12 0 -9 -4 -8 -10 2 -8 12 -12 13 -19 2 -12 -19 -98 -18 -120 2 -22 20 -45
20 -60 2z"/>
<path d="M155 631 c-76 -35 -125 -111 -125 -194 0 -130 88 -221 214 -221 93 1
160 41 201 123 27 54 18 166 -19 219 -56 82 -180 115 -271 73z m172 -42 c44
-21 84 -75 97 -132 24 -103 -100 -224 -207 -202 -50 11 -105 51 -127 95 -79
154 80 315 237 239z"/>
<path d="M150 435 l0 -125 83 0 c69 0 87 3 100 18 21 23 22 85 2 102 -11 9
-13 16 -5 24 5 5 10 25 10 42 0 48 -29 64 -117 64 l-73 0 0 -125z"/>
<path d="M30 160 c0 -19 7 -20 215 -20 208 0 215 1 215 20 0 19 -7 20 -215 20
-208 0 -215 -1 -215 -20z"/>
<path d="M42 111 c-8 -4 -12 -19 -10 -32 3 -22 8 -24 60 -27 47 -2 57 1 61 15
4 15 5 14 6 -3 1 -19 6 -21 54 -16 28 3 55 10 59 16 6 8 8 7 8 -1 0 -9 25 -12
90 -11 87 1 90 2 90 24 0 26 21 23 -225 27 -82 1 -157 5 -165 9 -8 4 -21 4
-28 -1z"/>
</g>
</svg>
