<svg version="1.1" id="Linkedin" class="social-icon" xmlns="http://www.w3.org/2000/svg" xmlns:xlink="http://www.w3.org/1999/xlink" x="0px" y="0px" viewBox="0 0 30 30"> <g id="linkedin-linkedin"> <path d="M0.7,9.9h6v19.3h-6V9.9z M3.7,0.3c1.9,0,3.5,1.6,3.5,3.5c0,1.9-1.6,3.5-3.5,3.5c-1.9,0-3.5-1.6-3.5-3.5
 C0.2,1.9,1.8,0.3,3.7,0.3"></path> <path d="M10.5,9.9h5.8v2.6h0.1c0.8-1.5,2.8-3.1,5.7-3.1c6.1,0,7.2,4,7.2,9.2v10.6h-6v-9.4c0-2.2,0-5.1-3.1-5.1
 c-3.1,0-3.6,2.4-3.6,5v9.6h-6V9.9z"></path> </g> </svg>